<?xml version="1.0" encoding="UTF-8"?>
<svg width="1200pt" height="1200pt" version="1.1" viewBox="0 0 1200 1200" xmlns="http://www.w3.org/2000/svg">
 <path d="m550.64 171.89v0.09375h-0.09375l-0.046875 0.046875h-0.09375c-104.06 0-188.44 84.422-188.44 188.53 0 34.406 9.2344 66.656 25.312 94.406l0.046875 0.09375c3.5625 6.0938 9.9375 9.4219 16.547 9.4219 3.2344 0 6.5625-0.84375 9.5625-2.5781v-0.046875c9.0938-5.2031 12.281-16.781 7.1719-25.922-12.891-22.172-20.297-47.906-20.297-75.375 0-83.016 67.312-150.32 150.32-150.32s150.32 67.312 150.32 150.32c0 27.422-7.3594 53.156-20.203 75.281v0.046875c-5.2031 9.1406-2.0625 20.719 7.0781 25.969v0.046875c3 1.7344 6.3281 2.5781 9.5625 2.5781 6.5156 0 12.844-3.2812 16.453-9.2344v-0.046875c16.172-27.797 25.453-60.141 25.453-94.641 0-104.2-84.469-188.68-188.68-188.68zm6.4688 121.87v0.046876h0.09375c23.859 0 43.172 19.359 43.172 43.219l0.046875 274.45c0 10.594 8.5781 19.172 19.172 19.172s19.172-8.5781 19.172-19.172l0.28125-13.359c2.2031-21.844 20.625-38.906 43.031-38.906 21.047 0 38.578 15 42.469 34.875v0.09375c1.9219 8.5312 9.6562 14.906 18.797 14.906 4.125 0 7.8281-1.2188 10.969-3.4219l0.14062-0.046874c7.2188-5.5781 16.312-8.8594 26.109-8.8594 21.188 0 38.766 15.188 42.562 35.25v0.046876c2.0625 8.2969 9.6094 14.484 18.562 14.484 3.3281 0 6.4688-0.84375 9.1875-2.3438h0.046875c3.7969-1.9219 8.1094-3 12.656-3 15.516 0 28.078 12.562 28.078 28.078l0.046875 161.81c-0.09375 22.734-10.453 42.984-26.766 56.391-13.828 11.016-24.422 26.297-28.922 44.016l-0.046875 0.046875c-8.6719 33.422-39.047 58.078-75.188 58.078h-165.94c-35.812-0.32812-65.859-24.891-74.438-58.078l-0.046875-0.09375c-3.8438-15.188-12.234-28.641-23.344-39.141l-171.1-173.39c-14.156-18.188-14.484-44.344 0.65625-62.953 9.9844-12.328 24.562-18.703 39.281-18.703 11.203 0 22.5 3.7031 31.875 11.297l84.703 68.859c3.3281 2.7656 7.5938 4.4531 12.234 4.4531 10.594 0 19.172-8.5781 19.172-19.172v-0.046874l-0.046875 0.046874v-365.68c0-23.906 19.406-43.266 43.312-43.266zm0-38.391v0.09375l-0.046875 0.046874h-0.09375l-0.046875 0.046876c0-0.09375 0-0.09375-0.046875-0.09375-45 0-81.469 36.516-81.469 81.562v325.26l-53.484-43.5c-16.5-13.406-36.328-19.922-56.062-19.922-25.828 0-51.469 11.25-69.047 32.859-26.859 33.047-26.062 79.594-0.5625 111.56h0.046875c0.375 0.46875 0.84375 0.9375 1.2656 1.4062l172.82 175.22c6.1875 5.7656 10.969 13.172 12.984 21.703l0.046875 0.046874c12.938 49.078 57.281 85.406 110.2 86.297h167.16c53.812 0 99.047-36.609 112.17-86.297l0.046875-0.046874c2.2969-9.7969 8.25-18.141 15.844-24.188 24.891-20.344 40.875-51.141 41.156-85.641v-162.52c0-36.703-29.719-66.469-66.422-66.469-3.375 0-6.7031 0.28125-9.9375 0.75v0.046874c-13.406-26.859-41.109-45.234-73.078-45.234-9.4688 0-18.516 1.6406-27 4.5938-13.922-25.125-40.734-42.141-71.484-42.141-15.891 0-30.75 4.5469-43.312 12.422v-196.22c0-45.094-36.562-81.656-81.656-81.656z" fill="#d77003"/>
</svg>
